Mutiny On The Buses: Bus driver Stan Butler agrees to marry Suzy, much to the anguish of Mum, her son-in-law Arthur and her daughter Olive. How, they wonder will they ever manage without Stan's money coming in? Arthur learns to drive a bus and Stan blackmails the Depot Manager into giving him the job of driver on the new money-making Special Tours Bus. A great idea, if only the inspector hadn't taken Stan on his trial run to Windsor Safari Park!


Format : MPEG-4
Format profile : Base Media / Version 2
Codec ID : mp42
File size : 899 MiB
Duration : 1h 24mn
Overall bit rate : 1 485 Kbps
Encoded date : UTC 2010-02-22 05:54:17
Tagged date : UTC 2010-02-22 10:31:01
Writing application : HandBrake 0.9.3 2008112300

Video
ID : 1
Format : AVC
Format/Info : Advanced Video Codec
Format profile : Main@L4.0
Format settings, CABAC : Yes
Format settings, ReFrames : 3 frames
Codec ID : avc1
Codec ID/Info : Advanced Video Coding
Duration : 1h 24mn
Bit rate mode : Variable
Bit rate : 1 321 Kbps
Width : 720 pixels
Height : 576 pixels
Display aspect ratio : 16:9
Frame rate mode : Variable
Frame rate : 25.000 fps
Minimum frame rate : 12.500 fps
Maximum frame rate : 25.000 fps
Standard : PAL
Resolution : 8 bits
Colorimetry : 4:2:0
Scan type : Progressive
Bits/(Pixel*Frame) : 0.127
Stream size : 800 MiB (89%)
Writing library : x264 core 65

Language : English
Encoded date : UTC 2010-02-22 05:54:17
Tagged date : UTC 2010-02-22 10:31:01
Color primaries : BT.601-6 525, BT.1358 525, BT.1700 NTSC, SMPTE 170M
Transfer characteristics : BT.709-5, BT.1361
Matrix coefficients : BT.601-6 525, BT.1358 525, BT.1700 NTSC, SMPTE 170M

Audio
ID : 2
Format : AAC
Format/Info : Advanced Audio Codec
Format version : Version 4
Format profile : LC
Format settings, SBR : No
Codec ID : 40
Duration : 1h 24mn
Bit rate mode : Variable
Bit rate : 160 Kbps
Maximum bit rate : 206 Kbps
Channel(s) : 2 channels
Channel positions : L R
Sampling rate : 48.0 KHz
Stream size : 96.9 MiB (11%)
Language : English
Encoded date : UTC 2010-02-22 05:54:17
Tagged date : UTC 2010-02-22 10:30:57